<svg width="256" height="256" viewBox="0 0 256 256" fill="none" xmlns="http://www.w3.org/2000/svg">
<path d="M0 17C0 7.61116 7.61116 0 17 0H239C248.389 0 256 7.61116 256 17V239C256 248.389 248.389 256 239 256H17C7.61116 256 0 248.389 0 239V17Z" fill="#FDFDFD"/>
<path d="M206.5 78L208.5 78.25L210.25 79.25L211.25 80.5L211.75 81.75V83.75L211.25 85L209.25 86.75L207.5 87.25L211.5 99L215.75 111L219.5 121.5L223.75 133.5L225.75 139V139.75H229.25L229.5 140.5L227.75 143.25L225.75 145.25L222.25 147.5L218.25 149L214 150L210.75 150.5H201L196 149.75L192.25 148.75L189.25 147.5L186.25 145.75L183.5 143.25L181.75 140.5V140L182.25 139.75H185.25L186 137L189.75 126.25L192.25 119.5L194 114.5L197.25 105.5L199 100.25L203.25 88.25L203.5 87.25H194.25L173 87H82.75L63 87.25H52L55 96.25L58.5 106.25L62.75 118L65.25 124.75L67 129.75L69.75 137.75L70.5 139.5L72 139.75L73.75 140L73.25 141.5L71.25 144.25L68.75 146.25L64.75 148.25L60.75 149.5L55 150.5H45L40 149.75L35 148.25L30.75 146L27.75 143.25L26 140.5V139.75H29.25L30.5 136.75L33 129.75L34.75 124.75L37.25 117.75L39.75 110.5L44 98.5L47.5 88.5L47.75 87.25L46.25 86.75L44.25 85.25L43.5 83.5V81.75L44.5 79.75L45.75 78.75L46.75 78.25H50L51.5 79.25L52.5 80.5L53.75 83L55 83.5L56.5 83.75H60.25L73 82.5L87.25 81L103.75 79.75L120.5 79H135.5L151.25 79.75L167.5 81L188.5 83.25L195.75 83.75H199L201.75 83.25L202.75 80.5L204 79L206.5 78Z" fill="#1D1C1D"/>
<path d="M109.75 108.75H115L117.25 112.75L123.25 124.75L126.25 131L127.5 133.5H128L130.75 127.75L133.75 121.75L136 116.75L140 108.75H145.25L145.5 109L146.25 128.75L147 158.5L147.25 167V172.75H142.5L142.25 172L141 142.5L140 125.25L137 130.75L132.75 139.5L129.75 145.25L129 146.25H126.5L125.25 144.75L121 136.5L118 130.25L115.5 125.75V125.25H115L114.75 131.75L113.75 151.5L113 171.25L112.75 172.75H108L108.5 151.5L109.25 121.5L109.75 108.75Z" fill="#1D1C1D"/>
<path d="M81 98H102.5L102.25 99.5L100.75 99.75L98.25 100.5L97 102L96.75 102.75L96.5 137.25L96 142.75L95 146.75L93 150.75L91 153.5L89 155.5L86.5 157.25L82.5 159.25L78.25 160.5L75.5 161H73.25L72.75 160L74 159.25L77.25 158L80 156.5L82.5 154.25L84 152.25L85.5 149L86.5 144.75L86.75 142.75V103.25L86 101.25L85.75 100.5L81 99.5L80.75 98.25L81 98Z" fill="#1D1C1D"/>
<path d="M166.25 100H172.25L179.5 101L181 101.5L181.25 110.25L180.75 110.5H179.25L178.5 109.25L177.25 106.75L175.75 105L173.5 103.75L171.25 103.25H167.25L164.75 104L162.75 105.5L161.5 108V110.5L162.25 112.5L163.5 114L166.5 115.75L175.5 119.75L179 122L181.25 124.25L182.75 127.25L183.25 129V132.25L182.25 135.5L180.75 138L178.25 140.25L174.75 142L170.75 143L168.75 143.25H164.25L158.75 142.5L154 141.5L153.75 141.25L153.5 137.75V131.75L153.75 131.5L155.5 131.75L157.5 135.75L159.25 137.75L162.75 139.5L165.25 140H168.5L170.75 139.5L173.25 138.25L174.75 136.25L175.25 135L175.5 132.75L175 130.75L174 129L171.5 127L166.25 124.5L161.5 122.5L158.5 120.75L156.25 118.75L154.5 116L153.75 112.75L154 109.25L155.25 106.25L157 104L159.75 102L162.75 100.75L166.25 100Z" fill="#1D1C1D"/>
<path d="M99.5 179.5H156L157.25 180.75L158.5 183.25L158.25 184H96.75L97 182.75L98.25 180.5L99.5 179.5Z" fill="#1D1C1D"/>
<path d="M105.25 89.5H152L152.5 89.75L152 92.5L150.75 94L150.25 94.25H105.25L104 93.75L103 91.75L102.75 90L103 89.75L105.25 89.5Z" fill="#1D1C1D"/>
<path d="M115.75 128.25L116.5 129.25L118.75 134L119 134.75V171.25L118.25 172.5L117.75 172.75H115.5L114.25 171.75L114 171.25V167L114.5 149.5L115.25 131.5L115.5 128.5L115.75 128.25Z" fill="#1D1C1D"/>
<path d="M139.25 128.75L139.75 129.75L140.5 144L141.25 165.25V170.75L140.5 172.25L139.5 172.75H137.5L136.5 172L136.25 171.25V134.5L139 129L139.25 128.75Z" fill="#1D1C1D"/>
<path d="M104.25 174.75H151L152.25 176L153.25 177.5V178.25H102.25L102.5 176.75L103.5 175.25L104.25 174.75Z" fill="#1D1C1D"/>
<path d="M107.5 95.75H147.5L147.75 96L147.5 98L146 99.25H109.5L108.25 98.5L107.5 97.25L107.25 96L107.5 95.75Z" fill="#1D1C1D"/>
<path d="M121.5 140.75H122L124 144.75L126.5 149.25V170.75L126 172L125.25 172.75H122.75L121.5 171.5V140.75Z" fill="#1D1C1D"/>
<path d="M133.5 140.75H133.75V171.5L132.5 172.75H130.25L129 171.75L128.75 171V149.75L130.75 145.75L133.25 141L133.5 140.75Z" fill="#1D1C1D"/>
<path d="M130.5 100.75H132L133.5 101.75L133.75 102.75L134 119L133.25 121.5L129.5 128.75L128.75 129.25V102.75L129.5 101.25L130.5 100.75Z" fill="#1D1C1D"/>
<path d="M123.25 100.75L125.25 101L126.25 102L126.5 102.75V128.25H125.75L121.75 120.5L121.5 119.75V102.25L122.5 101L123.25 100.75Z" fill="#1D1C1D"/>
<path d="M126.75 71L130 71.25L132.5 72.5L134.25 74.25L135.5 76.75V78.75L119.75 78.5L119.5 77.75L120.75 74.75L122.5 72.75L124.5 71.5L126.75 71Z" fill="#1D1C1D"/>
<path d="M116.5 100.75L118 101L119 102L119.25 113.75L118.5 113.5L116.5 109.5L116 108L115.25 107.75L114.75 106.75V102.5L115.25 101.25L116.5 100.75Z" fill="#1D1C1D"/>
<path d="M137.75 100.75L139.5 101L140.25 102L140.5 103V106L140 107.5L138.5 110L136.75 113.5L136.25 113.75V101.75L137 101L137.75 100.75Z" fill="#1D1C1D"/>
<path d="M142 100.75H144.75L145 101.5V107.25L144.75 107.5H141.75L141.5 107.25L141.75 101L142 100.75Z" fill="#1D1C1D"/>
<path d="M110.25 100.75H113L113.5 101.25V107.5H110.25V100.75Z" fill="#1D1C1D"/>
<path d="M50.5 88.75L51.25 89.75L53.5 96L59 111.75L62.25 120.75L67 134.25L68.75 139V139.75L66 140H53.25L50.75 139.75L50.5 129.5V88.75Z" fill="#FDFDFD"/>
<path d="M49 88.75H49.25V139.75H31.25L31.5 138L36 125.25L40.25 113.25L44.25 102L47.75 92L49 88.75Z" fill="#FDFDFD"/>
<path d="M206.25 89.25L207 90L211.25 102L213 107.25L217.25 119.25L222 132.75L224.25 139V139.75H206.5L206.25 139V89.25Z" fill="#FDFDFD"/>
<path d="M204.75 89H205L204.75 139.75H186.75L187.25 137.5L191.5 125.5L195.25 115L199.5 103L201.75 96.75L203.75 91L204.75 89Z" fill="#FDFDFD"/>
<path d="M32.5 142.75L38.25 143.5L45.75 144.25L49.5 144.5L49 145H41.75L36 144.5L33.25 143.75L32.5 143.25V142.75Z" fill="#FDFDFD"/>
<path d="M188.5 142.75L194.5 143.5L201.5 144.25L205 144.5L204.5 145H197.75L191.75 144.5L189 143.5L188.5 143.25V142.75Z" fill="#FDFDFD"/>
<path d="M206 81.5H207.25L207.5 81.75V83.5L205 83.75H203.5L203.75 83.25H205L205.5 82L206 81.5Z" fill="#FDFDFD"/>
<path d="M48 81.25L49.5 81.75L50.25 83.25L49.5 83.75L48 83.5L47.5 83L47.75 81.5L48 81.25Z" fill="#FDFDFD"/>
</svg>
